<?xml version="1.0" standalone="no"?>
<!DOCTYPE svg PUBLIC "-//W3C//DTD SVG 20010904//EN"
 "http://www.w3.org/TR/2001/REC-SVG-20010904/DTD/svg10.dtd">
<svg version="1.0" xmlns="http://www.w3.org/2000/svg"
 width="1000.000000pt" height="1000.000000pt" viewBox="0 0 1000.000000 1000.000000"
 preserveAspectRatio="xMidYMid meet">
<metadata>
Created by potrace 1.11, written by Peter Selinger 2001-2013
</metadata>
<g transform="translate(0.000000,1000.000000) scale(0.100000,-0.100000)"
fill="#000000" stroke="none">
<path d="M4340 6788 c-1 -18 -2 -662 -3 -1431 l-2 -1397 168 0 167 0 0 1430 0
1430 -165 0 -165 0 0 -32z"/>
<path d="M8767 5398 c0 -783 2 -1426 2 -1430 1 -5 74 -8 164 -8 l164 0 -1 91
c-1 50 1 92 4 94 3 2 11 -9 18 -25 23 -51 91 -118 150 -146 50 -25 69 -28 157
-28 88 -1 107 2 156 25 128 60 193 168 235 394 17 92 19 156 19 780 0 374 -4
711 -8 749 -11 92 -49 239 -77 298 -35 75 -93 134 -168 170 -60 29 -76 32
-162 32 -83 1 -102 -2 -152 -26 -61 -28 -127 -89 -153 -138 -9 -17 -17 -30
-18 -30 -1 0 -2 139 -1 310 l0 310 -165 0 -166 0 2 -1422z m654 696 c33 -30
69 -117 78 -189 5 -39 9 -360 9 -715 0 -697 -5 -799 -50 -889 -30 -58 -65 -83
-127 -89 -142 -13 -210 78 -227 307 -9 115 -9 1206 0 1301 10 102 23 157 49
209 30 58 60 79 127 89 64 9 113 1 141 -24z"/>
<path d="M479 6763 c0 -16 -2 -39 -5 -53 -9 -58 -59 -383 -68 -445 -2 -16 -9
-59 -15 -95 -10 -63 -17 -111 -26 -181 -3 -19 -7 -43 -9 -54 -4 -23 -25 -156
-30 -200 -6 -45 -18 -127 -22 -150 -3 -11 -9 -51 -14 -90 -6 -38 -13 -81 -15
-95 -9 -56 -34 -218 -40 -260 -3 -25 -10 -70 -15 -100 -5 -30 -12 -75 -15
-100 -4 -25 -13 -88 -21 -140 -9 -52 -17 -110 -20 -129 -2 -19 -6 -46 -9 -60
-2 -14 -7 -48 -11 -76 -3 -27 -8 -59 -10 -70 -3 -11 -9 -49 -14 -85 -5 -36
-12 -74 -14 -85 -2 -11 -7 -42 -10 -70 -4 -27 -9 -63 -12 -80 -6 -35 -10 -60
-19 -132 l-6 -53 155 0 c172 0 159 -6 170 75 3 22 8 56 11 75 3 19 7 53 10 75
4 35 33 247 39 293 3 15 29 17 259 20 142 1 258 -1 258 -5 1 -5 3 -17 4 -28 7
-50 18 -122 21 -140 2 -11 13 -83 25 -160 11 -77 22 -149 24 -160 2 -11 4 -26
4 -32 1 -10 40 -13 162 -13 88 0 158 3 156 8 -4 5 -36 191 -62 352 -4 28 -44
270 -51 315 -3 17 -30 179 -60 360 -30 182 -57 344 -60 360 -3 17 -7 41 -9 55
-2 14 -20 122 -40 240 -20 118 -38 229 -41 245 -2 17 -9 55 -14 85 -5 30 -11
69 -13 85 -3 17 -19 116 -37 220 -17 105 -33 201 -35 215 -2 14 -8 53 -14 87
-15 86 -19 109 -27 160 l-6 43 -204 0 -204 0 -1 -27z m225 -558 c3 -27 8 -59
10 -70 8 -43 22 -136 31 -215 4 -30 8 -57 10 -60 2 -3 6 -27 9 -55 4 -27 11
-75 16 -105 5 -30 11 -73 14 -95 3 -22 14 -98 25 -170 11 -71 23 -148 26 -170
7 -48 25 -171 30 -204 3 -14 11 -75 20 -135 9 -61 18 -121 20 -133 l5 -23
-218 0 -219 0 8 48 c4 26 10 72 13 102 4 30 9 66 11 80 7 40 13 78 30 205 23
171 25 187 30 215 2 14 7 52 10 85 4 33 8 67 11 76 3 9 7 36 9 59 4 40 11 91
20 150 2 14 11 79 20 145 9 66 18 130 20 141 2 12 7 48 11 80 3 33 8 66 10 74
1 8 3 19 3 24 2 21 9 -2 15 -49z"/>
<path d="M5004 6768 c3 -13 8 -45 11 -73 6 -54 32 -248 41 -305 3 -19 7 -55
10 -80 2 -25 7 -63 10 -85 11 -70 11 -71 30 -212 2 -18 6 -48 8 -65 3 -18 8
-55 11 -83 3 -27 13 -102 22 -165 8 -63 17 -128 18 -145 2 -16 9 -66 15 -110
6 -44 13 -98 16 -120 3 -22 7 -51 9 -65 2 -14 7 -46 10 -72 3 -26 10 -79 15
-118 5 -39 12 -92 15 -118 3 -26 15 -110 25 -187 11 -77 22 -160 25 -185 13
-111 16 -137 20 -160 3 -14 7 -47 10 -75 3 -27 8 -61 10 -75 3 -14 7 -47 11
-75 3 -27 7 -61 10 -75 2 -14 7 -52 10 -85 4 -33 8 -63 11 -67 2 -5 76 -8 164
-8 120 0 159 3 159 13 0 6 7 48 14 92 8 44 17 100 20 125 3 25 8 56 10 70 3
14 7 43 11 65 3 22 17 114 31 205 13 91 33 219 44 285 10 66 22 140 25 165 3
25 12 86 20 135 8 50 17 110 20 135 3 25 8 52 10 60 2 8 6 31 9 50 14 106 19
137 22 155 2 11 7 40 10 65 3 25 7 47 9 50 2 3 6 34 10 70 4 36 8 67 10 70 2
3 6 29 10 59 4 30 8 61 10 70 2 9 6 43 10 74 8 62 16 67 22 15 1 -18 5 -46 8
-63 3 -16 10 -61 15 -100 6 -38 12 -81 15 -95 2 -14 6 -45 9 -70 3 -25 8 -56
11 -70 3 -14 7 -47 11 -75 3 -27 7 -52 9 -55 1 -3 6 -36 10 -75 4 -38 8 -72
10 -75 1 -3 6 -32 9 -65 4 -33 9 -67 11 -75 2 -8 6 -35 9 -60 4 -25 8 -56 10
-70 4 -22 18 -119 32 -220 3 -19 7 -46 9 -60 2 -14 9 -61 15 -105 14 -101 19
-134 25 -165 2 -14 7 -47 10 -75 6 -51 53 -363 60 -400 2 -11 4 -28 4 -37 1
-16 16 -18 166 -18 125 0 165 3 166 13 2 20 6 49 13 92 3 22 8 65 11 95 3 30
8 72 10 93 8 62 14 109 20 167 4 30 8 66 10 80 4 31 16 128 30 260 4 30 8 66
10 80 2 14 7 50 10 80 3 30 10 89 15 130 12 103 19 156 25 215 3 28 8 66 11
85 5 35 7 54 19 160 3 30 7 69 9 85 3 17 9 75 16 130 12 110 19 167 25 205 2
14 7 52 10 84 3 33 7 71 9 85 3 14 7 55 11 91 4 36 8 76 10 90 9 62 17 131 30
260 4 36 9 73 11 83 2 10 6 48 10 85 3 37 8 70 11 75 2 4 -66 7 -151 7 -142 0
-156 -2 -157 -17 0 -10 -2 -25 -4 -34 -1 -9 -6 -59 -10 -110 -4 -52 -8 -101
-10 -109 -2 -8 -6 -49 -9 -90 -4 -41 -9 -95 -11 -120 -2 -25 -7 -74 -10 -110
-3 -36 -8 -81 -10 -100 -4 -34 -10 -95 -20 -215 -3 -33 -7 -78 -10 -100 -4
-36 -7 -68 -21 -220 -2 -27 -6 -70 -9 -95 -2 -25 -7 -74 -10 -110 -3 -36 -8
-85 -10 -110 -2 -25 -7 -74 -10 -110 -4 -36 -8 -80 -10 -99 -3 -19 -7 -70 -10
-115 -3 -45 -7 -92 -10 -106 -2 -14 -7 -59 -10 -100 -4 -41 -8 -76 -9 -78 -2
-1 -9 32 -15 75 -7 43 -20 134 -31 203 -10 69 -22 143 -25 165 -3 23 -7 52
-10 65 -3 13 -7 40 -9 60 -13 94 -17 117 -20 137 -3 12 -7 43 -11 70 -4 26
-13 86 -21 133 -7 47 -16 105 -19 130 -3 25 -8 56 -10 70 -2 14 -18 115 -35
225 -17 110 -33 211 -35 225 -2 14 -11 75 -20 135 -15 100 -41 268 -50 321 -2
12 -6 47 -10 78 l-7 56 -139 0 c-104 0 -139 -3 -139 -12 0 -7 -5 -44 -11 -83
-5 -38 -12 -85 -15 -104 -2 -19 -6 -46 -9 -60 -2 -14 -6 -46 -10 -71 -3 -25
-8 -56 -10 -70 -7 -40 -14 -82 -19 -125 -3 -22 -8 -51 -11 -65 -4 -23 -10 -61
-20 -140 -6 -42 -44 -304 -50 -340 -6 -38 -34 -221 -39 -260 -8 -58 -56 -383
-61 -411 -3 -15 -7 -44 -10 -65 -21 -156 -53 -346 -55 -329 -1 11 -4 29 -5 40
-2 11 -6 45 -9 75 -8 66 -15 122 -21 170 -2 19 -7 62 -10 95 -5 54 -8 81 -20
180 -2 17 -7 62 -10 100 -4 39 -8 81 -10 94 -3 14 -7 52 -10 85 -4 34 -8 72
-10 86 -5 36 -14 116 -20 180 -3 30 -8 75 -11 100 -10 85 -13 105 -19 165 -4
33 -9 76 -11 95 -2 19 -6 62 -9 95 -3 33 -8 74 -10 90 -3 17 -7 53 -10 80 -8
85 -36 329 -40 355 -2 14 -4 31 -4 38 -1 9 -39 12 -156 12 l-155 0 4 -22z"/>
<path d="M3258 6385 c-218 -47 -350 -225 -386 -520 -9 -78 -9 -1333 0 -1405
24 -184 79 -328 153 -401 42 -43 129 -90 200 -110 53 -14 268 -19 318 -7 98
24 157 55 210 112 111 119 147 274 151 649 l2 157 -161 0 -162 0 -2 -211 c-2
-351 -38 -440 -179 -441 -97 -1 -154 38 -180 122 -22 70 -24 111 -29 463 l-5
357 361 0 362 0 -2 333 c-1 425 -20 565 -91 699 -50 95 -117 151 -223 189 -73
26 -250 33 -337 14z m235 -278 c36 -23 75 -111 82 -186 5 -51 9 -414 6 -522
l-1 -26 -196 0 -196 1 5 245 c4 232 7 272 23 346 9 41 38 96 62 118 49 45 164
57 215 24z"/>
<path d="M7683 6384 c-219 -47 -337 -209 -380 -523 -10 -72 -10 -1338 0 -1411
12 -90 17 -111 47 -202 47 -141 93 -199 201 -257 81 -44 172 -61 309 -57 203
6 315 69 391 219 59 116 81 266 83 567 l1 135 -162 3 -162 2 -1 -207 c-1 -235
-3 -255 -32 -336 -34 -93 -91 -124 -196 -105 -49 9 -87 35 -114 78 -35 59 -45
171 -47 548 l-2 312 361 0 c336 0 360 1 361 18 3 74 -1 565 -6 637 -12 177
-49 323 -102 408 -51 80 -142 143 -248 170 -67 18 -225 18 -302 1z m235 -274
c38 -23 79 -109 86 -178 5 -44 9 -366 7 -518 l-1 -40 -195 0 -196 0 2 220 c1
321 22 431 92 491 22 19 51 36 66 38 59 8 111 4 139 -13z"/>
<path d="M1533 6358 c2 -7 44 -134 92 -283 116 -359 196 -606 240 -740 20 -60
37 -119 37 -130 0 -18 -40 -144 -182 -575 -21 -63 -77 -236 -125 -385 -48
-148 -90 -273 -92 -278 -2 -4 64 -6 147 -5 l152 3 20 65 c69 231 182 613 202
684 10 32 19 56 21 54 4 -4 23 -62 189 -578 l72 -225 152 -3 c89 -1 152 1 152
7 0 5 -35 116 -79 248 -43 131 -133 404 -200 607 l-121 368 62 187 c34 102 63
191 64 196 2 6 61 186 132 400 l129 390 -145 3 c-79 1 -147 0 -150 -2 -5 -5
-58 -181 -92 -301 -24 -87 -92 -319 -117 -400 l-19 -60 -13 40 c-7 22 -16 49
-21 60 -4 11 -55 164 -113 340 l-104 320 -148 3 c-116 2 -146 0 -142 -10z"/>
</g>
</svg>
